<svg preserveAspectRatio="none" width="100%" height="100%" overflow="visible" style="display: block;" viewBox="0 0 20 20" fill="none" xmlns="http://www.w3.org/2000/svg">
<path id="Union" fill-rule="evenodd" clip-rule="evenodd" d="M18 20H2C0.96435 20 0.113005 19.2128 0.0107422 18.2041L0 18V2C0 0.895431 0.895431 0 2 0H18L18.2041 0.0107422C19.2128 0.113005 20 0.96435 20 2V18L19.9893 18.2041C19.8938 19.1457 19.1457 19.8938 18.2041 19.9893L18 20ZM2 18.5H18C18.2761 18.5 18.5 18.2761 18.5 18V17.4901L6.91602 7.64355L1.5 13.0605V18C1.5 18.2761 1.72386 18.5 2 18.5ZM7.36035 6.05371L18.5 15.5224V2C18.5 1.72386 18.2761 1.5 18 1.5H2C1.72386 1.5 1.5 1.72386 1.5 2V10.9395L6.83398 5.60547L7.36035 6.05371ZM15 5C15.5523 5 16 5.44772 16 6C16 6.55228 15.5523 7 15 7C14.4477 7 14 6.55228 14 6C14 5.44772 14.4477 5 15 5ZM12.5 6C12.5 7.38071 13.6193 8.5 15 8.5C16.3807 8.5 17.5 7.38071 17.5 6C17.5 4.61929 16.3807 3.5 15 3.5C13.6193 3.5 12.5 4.61929 12.5 6Z" fill="var(--fill-0, #090909)"/>
</svg>
