<svg preserveAspectRatio="none" width="100%" height="100%" overflow="visible" style="display: block;" viewBox="0 0 12 12" fill="none" xmlns="http://www.w3.org/2000/svg">
<path id="Union" fill-rule="evenodd" clip-rule="evenodd" d="M12 6C12 9.31371 9.31371 12 6 12C2.68629 12 0 9.31371 0 6C0 2.68629 2.68629 0 6 0C9.31371 0 12 2.68629 12 6ZM7.06653 4.16357C7.06653 3.55739 6.5829 3.07673 6.00012 3.07666C5.41729 3.07666 4.93372 3.55735 4.93372 4.16357H3.93372C3.93372 3.01726 4.85288 2.07666 6.00012 2.07666C7.14731 2.07673 8.06653 3.01731 8.06653 4.16357C8.0664 5.13703 7.40267 5.95954 6.50012 6.18604V7.27588H5.50012V5.24951H6.00012C6.5828 5.24944 7.06638 4.76962 7.06653 4.16357ZM6.00002 9.62488C6.43254 9.62488 6.78316 9.27425 6.78316 8.84174C6.78316 8.40922 6.43254 8.05859 6.00002 8.05859C5.5675 8.05859 5.21688 8.40922 5.21688 8.84174C5.21688 9.27425 5.5675 9.62488 6.00002 9.62488Z" fill="var(--fill-0, #090909)"/>
</svg>
