<svg preserveAspectRatio="none" width="100%" height="100%" overflow="visible" style="display: block;" viewBox="0 0 12 12" fill="none" xmlns="http://www.w3.org/2000/svg">
<path id="Union" d="M6 0C9.31371 0 12 2.68629 12 6C12 9.31371 9.31371 12 6 12C2.68629 12 0 9.31371 0 6C0 2.68629 2.68629 0 6 0ZM6 1C3.23858 1 1 3.23858 1 6C1 8.76142 3.23858 11 6 11C8.76142 11 11 8.76142 11 6C11 3.23858 8.76142 1 6 1ZM6 8.05859C6.43252 8.05859 6.7832 8.40928 6.7832 8.8418C6.78317 9.27429 6.4325 9.625 6 9.625C5.56752 9.62498 5.21683 9.27428 5.2168 8.8418C5.2168 8.40929 5.5675 8.05861 6 8.05859ZM6 2.07715C7.14718 2.07722 8.06641 3.01779 8.06641 4.16406C8.06605 5.1373 7.4024 5.96006 6.5 6.18652V7.27637H5.5V5.25H6C6.58253 5.24993 7.06599 4.76988 7.06641 4.16406C7.06641 3.55788 6.58278 3.07722 6 3.07715C5.41722 3.07722 4.93359 3.55788 4.93359 4.16406H3.93359C3.93359 3.01779 4.85282 2.07722 6 2.07715Z" fill="var(--fill-0, #090909)"/>
</svg>
