<svg preserveAspectRatio="none" width="100%" height="100%" overflow="visible" style="display: block;" viewBox="0 0 16.667 16.667" fill="none" xmlns="http://www.w3.org/2000/svg">
<path id="Union" fill-rule="evenodd" clip-rule="evenodd" d="M15 16.667H1.66699L1.49609 16.6582C0.711612 16.5785 0.0882463 15.9545 0.00878906 15.1699L0 15V1.66699C0 0.80411 0.655755 0.0942233 1.49609 0.00878906L1.66699 0H15C15.9205 0 16.667 0.746518 16.667 1.66699V15L16.6582 15.1699C16.5787 15.9547 15.9547 16.5787 15.1699 16.6582L15 16.667ZM1.66699 15.417H15C15.2301 15.417 15.417 15.2301 15.417 15V14.575L5.76306 6.37042L1.25 10.8844V15C1.25 15.2301 1.43687 15.417 1.66699 15.417ZM6.13416 5.04425L15.417 12.9354V1.66699C15.417 1.43687 15.2301 1.25 15 1.25H1.66699C1.43687 1.25 1.25 1.43687 1.25 1.66699V9.11591L5.6947 4.6712L6.13416 5.04425ZM12.4997 4.16665C12.9598 4.16665 13.3335 4.53957 13.3337 4.99965C13.3337 5.45989 12.96 5.83364 12.4997 5.83364C12.0396 5.83346 11.6667 5.45978 11.6667 4.99965C11.6669 4.53967 12.0397 4.16682 12.4997 4.16665ZM12.2868 7.0729L12.4997 7.08364C13.5786 7.08364 14.4665 6.26331 14.573 5.21254L14.5837 4.99965C14.5835 3.84921 13.6502 2.91665 12.4997 2.91665C11.3494 2.91682 10.4169 3.84932 10.4167 4.99965C10.4167 6.07828 11.2364 6.96613 12.2868 7.0729Z" fill="var(--fill-0, #DC3426)"/>
</svg>
