<svg preserveAspectRatio="none" width="100%" height="100%" overflow="visible" style="display: block;" viewBox="0 0 13.333 13.333" fill="none" xmlns="http://www.w3.org/2000/svg">
<path id="Union" d="M7.00977 0.00878906C10.5322 0.187363 13.333 3.10017 13.333 6.66699L13.3242 7.00977C13.1456 10.5321 10.2337 13.3328 6.66699 13.333L6.32324 13.3242C2.91459 13.1512 0.181596 10.4185 0.00878906 7.00977L0 6.66699C0 2.98509 2.98509 0 6.66699 0L7.00977 0.00878906ZM6.66699 1C3.53738 1 1 3.53738 1 6.66699C1.00018 9.79646 3.53749 12.333 6.66699 12.333C9.79635 12.3328 12.3328 9.79635 12.333 6.66699C12.333 3.53749 9.79646 1.00018 6.66699 1ZM6.66699 8.99121C7.12708 8.99138 7.49999 9.36409 7.5 9.82422C7.5 10.2844 7.12709 10.6571 6.66699 10.6572C6.20675 10.6572 5.83301 10.2845 5.83301 9.82422C5.83302 9.36399 6.20676 8.99121 6.66699 8.99121ZM7.33398 8H6V2.66699H7.33398V8Z" fill="var(--fill-0, #090909)"/>
</svg>
