<svg preserveAspectRatio="none" width="100%" height="100%" overflow="visible" style="display: block;" viewBox="0 0 16.667 16.667" fill="none" xmlns="http://www.w3.org/2000/svg">
<path id="Union" d="M8.33301 0C12.9353 0 16.6668 3.73078 16.667 8.33301L16.6562 8.76172C16.4333 13.165 12.7917 16.667 8.33301 16.667L7.9043 16.6562C3.5013 16.433 0 12.7915 0 8.33301C0.000175744 3.73089 3.73089 0.000175747 8.33301 0ZM8.33301 1.25C4.42125 1.25018 1.25018 4.42125 1.25 8.33301C1.25 12.2449 4.42114 15.4168 8.33301 15.417C12.245 15.417 15.417 12.245 15.417 8.33301C15.4168 4.42114 12.2449 1.25 8.33301 1.25ZM8.33301 11.2383C8.9083 11.2383 9.37499 11.705 9.375 12.2803C9.375 12.8556 8.9083 13.3223 8.33301 13.3223C7.75787 13.3221 7.29199 12.8555 7.29199 12.2803C7.29201 11.7051 7.75788 11.2385 8.33301 11.2383ZM8.33398 2.9541C9.88788 2.95446 11.1338 4.22883 11.1338 5.7832C11.1334 7.1219 10.2084 8.25031 8.95898 8.53809V10.1055H7.70898V7.36133H8.33398C9.1821 7.36097 9.88333 6.66206 9.88379 5.7832C9.88379 4.90394 9.18237 4.20446 8.33398 4.2041C7.4853 4.2041 6.7832 4.90371 6.7832 5.7832H5.5332C5.5332 4.22861 6.77979 2.9541 8.33398 2.9541Z" fill="var(--fill-0, #090909)"/>
</svg>
