<svg preserveAspectRatio="none" width="100%" height="100%" overflow="visible" style="display: block;" viewBox="0 0 13.333 13.333" fill="none" xmlns="http://www.w3.org/2000/svg">
<path id="Union" fill-rule="evenodd" clip-rule="evenodd" d="M12 13.333H1.33301C0.64293 13.3328 0.0752825 12.8088 0.00683594 12.1367L0 12V1.33301C0.000175164 0.596886 0.596886 0.000175861 1.33301 0H12C12.7363 0 13.3328 0.596778 13.333 1.33301V12C13.333 12.6902 12.8089 13.2577 12.1367 13.3262L12 13.333ZM1.33301 12.333H12C12.1841 12.333 12.333 12.1841 12.333 12V11.66L4.611 5.0954L1 8.70732V12C1 12.184 1.14906 12.3328 1.33301 12.333ZM4.9069 4.03583L12.333 10.3472V1.33301C12.3328 1.14906 12.184 1 12 1H1.33301C1.14917 1.00018 1.00017 1.14917 1 1.33301V7.29331L4.55631 3.737L4.9069 4.03583ZM10.0003 3.33335C10.3684 3.33353 10.6663 3.63226 10.6663 4.00035C10.6662 4.36828 10.3683 4.66619 10.0003 4.66636C9.63224 4.66636 9.33351 4.36839 9.33333 4.00035C9.33333 3.63216 9.63214 3.33335 10.0003 3.33335ZM9.82943 5.65855L10.0003 5.66636C10.8632 5.6662 11.5733 5.01069 11.6585 4.17027L11.6663 4.00035C11.6663 3.13735 11.0107 2.42743 10.1702 2.34214L10.0003 2.33335C9.07985 2.33335 8.33333 3.07987 8.33333 4.00035L8.34212 4.17027C8.42172 4.95469 9.04504 5.57883 9.82943 5.65855Z" fill="var(--fill-0, #090909)"/>
</svg>
