<svg preserveAspectRatio="none" width="100%" height="100%" overflow="visible" style="display: block;" viewBox="0 0 20 20" fill="none" xmlns="http://www.w3.org/2000/svg">
<path id="Union" d="M10 0C15.5228 0 20 4.47715 20 10C20 15.5228 15.5228 20 10 20C4.47715 20 0 15.5228 0 10C0 4.47715 4.47715 0 10 0ZM10 1.5C5.30558 1.5 1.5 5.30558 1.5 10C1.5 14.6944 5.30558 18.5 10 18.5C14.6944 18.5 18.5 14.6944 18.5 10C18.5 5.30558 14.6944 1.5 10 1.5ZM10 13.4863C10.6903 13.4863 11.25 14.046 11.25 14.7363C11.25 15.4267 10.6904 15.9863 10 15.9863C9.30966 15.9863 8.75 15.4267 8.75 14.7363C8.75002 14.046 9.30967 13.4863 10 13.4863ZM10 3.54492C11.865 3.54499 13.3604 5.07399 13.3604 6.93945C13.3601 8.54651 12.25 9.90316 10.75 10.248V12.126H9.25V8.83398H10C11.0182 8.83392 11.86 7.9945 11.8604 6.93945C11.8604 5.88411 11.0184 5.04499 10 5.04492C8.98164 5.04499 8.13965 5.88411 8.13965 6.93945H6.63965C6.63965 5.07399 8.13502 3.54499 10 3.54492Z" fill="var(--fill-0, #090909)"/>
</svg>
