<svg preserveAspectRatio="none" width="100%" height="100%" overflow="visible" style="display: block;" viewBox="0 0 13.333 13.333" fill="none" xmlns="http://www.w3.org/2000/svg">
<path id="Union" d="M6.66699 0C10.3487 0.000176004 13.333 2.9852 13.333 6.66699C13.3328 10.3486 10.3486 13.3328 6.66699 13.333C2.9852 13.333 0.000176007 10.3487 0 6.66699C0 2.98509 2.98509 0 6.66699 0ZM6.66699 8.99121C6.20675 8.99121 5.83301 9.36398 5.83301 9.82422C5.83304 10.2844 6.20678 10.6572 6.66699 10.6572C7.12707 10.6571 7.49996 10.2843 7.5 9.82422C7.5 9.36408 7.12709 8.99138 6.66699 8.99121ZM6 8H7.33398V2.66699H6V8Z" fill="var(--fill-0, #DC3426)"/>
</svg>
